<?xml version="1.0" encoding="UTF-8" standalone="no"?>
<!-- Created with Inkscape (http://www.inkscape.org/) -->

<svg
   inkscape:version="1.1.1 (3bf5ae0d25, 2021-09-20)"
   sodipodi:docname="logo.svg"
   id="svg5"
   version="1.1"
   viewBox="0 0 512 512"
   height="512"
   width="512"
   xmlns:inkscape="http://www.inkscape.org/namespaces/inkscape"
   xmlns:sodipodi="http://sodipodi.sourceforge.net/DTD/sodipodi-0.dtd"
   xmlns="http://www.w3.org/2000/svg"
   xmlns:svg="http://www.w3.org/2000/svg">
  <sodipodi:namedview
     id="namedview7"
     pagecolor="#ffffff"
     bordercolor="#666666"
     borderopacity="1.0"
     inkscape:pageshadow="2"
     inkscape:pageopacity="0.0"
     inkscape:pagecheckerboard="0"
     inkscape:document-units="px"
     showgrid="false"
     inkscape:zoom="1.1628592"
     inkscape:cx="257.55483"
     inkscape:cy="171.12992"
     inkscape:window-width="1792"
     inkscape:window-height="1018"
     inkscape:window-x="119"
     inkscape:window-y="0"
     inkscape:window-maximized="0"
     inkscape:current-layer="layer1" />
  <defs
     id="defs2" />
  <g
     inkscape:label="Слой 1"
     inkscape:groupmode="layer"
     id="layer1">
    <g
       inkscape:label="Voronoi"
       id="g20064" />
    <path
       style="fill:#fff200;fill-opacity:1;stroke:#fff300;stroke-width:1.26383;stroke-opacity:0.614458"
       d="m 14.154231,267.11523 c 0,-0.38676 8.721685,-19.42961 19.38152,-42.31747 17.452131,-37.47159 19.649409,-41.55616 22.072551,-41.03095 1.480067,0.3208 26.299078,3.9906 55.153318,8.15513 28.85427,4.16454 52.98026,7.71173 53.61331,7.88266 0.63304,0.17094 -17.50484,8.65629 -40.30641,18.85632 -22.80157,10.20005 -56.860189,25.43323 -75.685843,33.85152 -18.825645,8.4183 -34.228446,14.98955 -34.228446,14.60279 z"
       id="path1840" />
    <path
       style="fill:#ffe400;fill-opacity:1;stroke:#fff300;stroke-width:1.26383;stroke-opacity:0.614458"
       d="M 58.306076,311.64465 C 34.381861,290.42061 14.654134,272.60666 14.466683,272.05806 14.136819,271.09264 166.32352,202.54877 167.03523,203.34219 c 0.26945,0.30038 -59.28548,134.58116 -64.21819,144.79525 -0.81998,1.69793 -9.278883,-5.23717 -44.510964,-36.49279 z"
       id="path1990" />
    <path
       style="fill:#ffe400;fill-opacity:1;stroke:#fff300;stroke-width:1.26383;stroke-opacity:0.614458"
       d="m 151.33265,152.85142 c -10.70261,-23.5056 -19.45903,-43.31341 -19.45872,-44.01734 5.4e-4,-1.17212 83.24698,-25.901848 84.16788,-25.003438 0.22136,0.215937 -9.86931,25.449878 -22.42371,56.075418 l -22.82617,55.6828 z"
       id="path2103" />
    <path
       style="fill:#fff100;fill-opacity:1;stroke:#fff300;stroke-width:1.26383;stroke-opacity:0.614458"
       d="M 238.07867,234.86651 C 208.87252,218.6831 182.49514,204.0319 179.46223,202.3083 l -5.51434,-3.13384 71.94894,-47.33532 c 39.57192,-26.03443 72.07392,-47.1965 72.22666,-47.02683 0.24995,0.27764 -25.26978,152.02937 -26.45068,157.28764 -0.40094,1.78524 -10.32495,-3.25757 -53.59414,-27.23344 z"
       id="path2142" />
    <path
       style="fill:#ffe200;fill-opacity:1;stroke:#fff300;stroke-width:1.26383;stroke-opacity:0.614458"
       d="m 30.7634,433.98326 c -0.01384,-0.30895 -3.08244,-14.1971 -6.819043,-30.86255 -6.67083,-29.75226 -6.74566,-30.31211 -4.133378,-30.92452 14.532219,-3.40693 76.958845,-16.50345 77.261041,-16.20864 0.217087,0.21179 -14.108557,17.44021 -31.834769,38.28537 -35.248072,41.45001 -34.437658,40.5165 -34.473851,39.71034 z"
       id="path2551" />
    <path
       style="fill:#ffea46;fill-opacity:1;stroke:#fff300;stroke-width:1.26383;stroke-opacity:0.614458"
       d="m 177.16034,188.75635 c 0.47534,-1.37313 10.4568,-25.94887 22.18105,-54.61278 l 21.31679,-52.116165 h 29.44303 29.44303 l -4.52518,4.681092 c -2.48884,2.574616 -24.86156,26.307733 -49.71717,52.740333 -53.30686,56.68896 -49.26307,52.54721 -48.14155,49.30752 z"
       id="path2960" />
    <path
       style="fill:#fdff46;fill-opacity:1;stroke:#fff300;stroke-width:1.26383;stroke-opacity:0.614458"
       d="m 109.25131,188.9449 c -28.277438,-4.22308 -51.719441,-7.98444 -52.093373,-8.35864 -0.37392,-0.37417 15.398551,-16.35823 35.049958,-35.52012 19.651395,-19.16191 35.977245,-34.58422 36.279645,-34.27184 0.46951,0.485 37.07608,80.10288 38.85843,84.51558 0.94544,2.34066 -1.86041,2.03324 -58.09466,-6.36498 z"
       id="path4072" />
    <path
       style="fill:#fcff00;fill-opacity:1;stroke:#fff300;stroke-width:1.26383;stroke-opacity:0.614458"
       d="m 16.669158,367.3609 c -0.02432,-1.42749 -1.111872,-22.53688 -2.416792,-46.90979 -1.304918,-24.37289 -2.189645,-44.50848 -1.96606,-44.74577 0.497177,-0.52764 86.07839,75.01483 86.219179,76.10562 0.0552,0.42716 -2.059028,1.14372 -4.698119,1.59234 -2.639126,0.44863 -21.0649,4.35659 -40.946195,8.68434 -34.908556,7.59892 -36.149319,7.7797 -36.192013,5.27326 z"
       id="path4666" />
    <path
       style="fill:#ffc800;fill-opacity:1;stroke:#fff300;stroke-width:1.26383;stroke-opacity:0.614458"
       d="m 254.97684,436.1274 -41.32217,-20.24429 71.94596,-12.74355 c 39.57027,-7.00896 72.11839,-12.57536 72.32913,-12.36975 0.4476,0.43665 -59.64542,65.00454 -60.83156,65.36142 -0.43954,0.13224 -19.39416,-8.86947 -42.12136,-20.00383 z"
       id="path5593" />
    <path
       style="fill:#ffd300;fill-opacity:1;stroke:#fff300;stroke-width:1.26383;stroke-opacity:0.614458"
       d="m 116.48866,490.56849 c 5.86929,-4.65497 27.99871,-22.26549 49.17645,-39.13448 21.17775,-16.86897 38.66166,-30.31335 38.85313,-29.87638 0.2785,0.63562 -21.22283,71.16643 -21.95448,72.01733 -0.11136,0.12947 -14.29705,1.10576 -31.52379,2.16952 -17.22675,1.06375 -34.44917,2.23862 -38.27206,2.61084 l -6.9507,0.67676 z"
       id="path6890" />
    <path
       style="fill:#ffbc00;fill-opacity:1;stroke:#fff300;stroke-width:1.26383;stroke-opacity:0.614458"
       d="m 329.41518,326.95207 c -18.38177,-31.38123 -33.28762,-57.21388 -33.12409,-57.40595 0.38121,-0.44777 96.89641,22.0524 97.61923,22.75756 0.46829,0.45683 -30.28607,91.89931 -30.86039,91.75773 -0.11724,-0.0288 -15.25298,-25.72813 -33.63475,-57.10934 z"
       id="path7151" />
    <path
       style="fill:#ffda14;fill-opacity:1;stroke:#fff300;stroke-width:1.26383;stroke-opacity:0.614458"
       d="m 212.48731,412.24417 c 0,-1.77511 79.817,-141.66966 80.46909,-141.03741 0.43092,0.41781 15.83646,26.41416 34.23453,57.76968 27.843,47.45236 33.09868,57.1649 31.3494,57.93404 -1.97586,0.86875 -141.84027,25.91423 -144.7159,25.91423 -0.73542,0 -1.33712,-0.26124 -1.33712,-0.58054 z"
       id="path7523" />
    <path
       style="fill:#ffef14;fill-opacity:1;stroke:#fff300;stroke-width:1.26383;stroke-opacity:0.614458"
       d="m 103.724,426.08119 v -70.56027 l 50.54294,29.58681 c 27.79864,16.27275 50.54296,29.97383 50.54296,30.44686 0,0.63953 -71.99156,58.439 -98.16319,78.81176 l -2.92271,2.2751 z"
       id="path8376" />
    <path
       style="fill:#ffad14;fill-opacity:1;stroke:#fff300;stroke-width:1.26383;stroke-opacity:0.614458"
       d="m 197.56088,455.57871 c 6.36986,-20.42517 11.69895,-37.3128 11.84243,-37.52804 0.14344,-0.21526 19.17791,8.70843 42.29874,19.8304 l 42.03784,20.22174 -53.10208,17.22684 c -29.20614,9.47474 -53.45228,17.26255 -53.8803,17.30628 -0.428,0.0437 4.43351,-16.63206 10.80337,-37.05722 z"
       id="path8896" />
    <path
       style="fill:#ffff2c;fill-opacity:1;stroke:#fff300;stroke-width:1.26383;stroke-opacity:0.614458"
       d="m 187.65012,184.24649 c 9.20026,-10.2546 94.58094,-100.420741 95.40176,-100.748906 0.94973,-0.37971 31.50179,15.277961 33.26716,17.049126 0.74731,0.74978 -126.22223,85.05242 -129.82169,86.19636 -0.83642,0.26583 -0.31768,-0.85764 1.15277,-2.49658 z"
       id="path10267" />
    <path
       style="fill:#ffc713;fill-opacity:1;stroke:#fff300;stroke-width:1.26383;stroke-opacity:0.614458"
       d="m 106.79985,347.14766 c 2.67503,-6.81367 63.89673,-143.55175 64.62193,-144.33246 0.84985,-0.91495 116.5928,62.53761 116.52413,63.88082 -0.0283,0.55258 -175.34601,80.41948 -180.71156,82.32408 -0.84546,0.30011 -1.00965,-0.40745 -0.4345,-1.87244 z"
       id="path11046" />
    <path
       style="fill:#ffbb13;fill-opacity:1;stroke:#fff300;stroke-width:1.26383;stroke-opacity:0.614458"
       d="m 156.59388,383.08077 c -27.57446,-16.25247 -49.74297,-29.91939 -49.26339,-30.37096 1.23654,-1.16429 179.93451,-82.01669 180.37371,-81.61059 0.59654,0.55162 -78.97364,141.08285 -80.01464,141.3162 -0.52817,0.11845 -23.52122,-13.08219 -51.09568,-29.33465 z"
       id="path12306" />
    <path
       style="fill:#ffc913;fill-opacity:1;stroke:#fff300;stroke-width:1.26383;stroke-opacity:0.0120482"
       d="m 218.94454,402.03945 c 38.59051,-68.68884 72.80678,-127.77512 73.99327,-127.77512 0.52919,0 13.38768,21.20536 28.57445,47.12302 26.87168,45.85903 35.56626,61.45511 35.56626,63.79764 0,0.62821 -6.47781,2.35322 -14.39515,3.83334 -18.10636,3.38493 -116.11211,20.79324 -123.64565,21.9626 l -5.60549,0.8701 z"
       id="path12863" />
    <path
       style="fill:#ffbe13;fill-opacity:1;stroke:#fff300;stroke-width:1.26383;stroke-opacity:0.0120482"
       d="m 346.20218,277.91017 c -26.03921,-6.14362 -47.79684,-11.30968 -48.35029,-11.48013 -0.71549,-0.22037 81.69757,-46.98253 88.74445,-50.35468 0.40013,-0.19148 2.29432,14.9292 4.20931,33.60151 1.91499,18.6723 3.75784,35.21355 4.09525,36.7583 0.33738,1.54476 0.17059,2.77189 -0.37064,2.72695 -0.54123,-0.0449 -22.28885,-5.10833 -48.32808,-11.25195 z"
       id="path13383" />
    <path
       style="fill:#ffb013;fill-opacity:1;stroke:#fff300;stroke-width:1.26383;stroke-opacity:0.0120482"
       d="m 46.277167,495.64776 c -4.255996,-15.5772 -12.910283,-51.02147 -12.626095,-51.71119 0.185056,-0.44915 14.558571,11.58779 31.941132,26.74878 17.382575,15.16098 31.489815,27.65732 31.34942,27.76964 -0.14031,0.11241 -11.301951,0.60775 -24.803468,1.10091 l -24.548209,0.89669 z"
       id="path13607" />
    <path
       style="fill:#ffb013;fill-opacity:1;stroke:#fff300;stroke-width:1.26383;stroke-opacity:0.0120482"
       d="M 66.616523,467.51443 C 48.670577,451.84952 33.800841,438.48775 33.572667,437.82159 33.344481,437.15546 48.31542,418.83026 66.841428,397.09895 l 33.683652,-39.51146 0.32666,54.76896 c 0.17966,30.12292 -0.10836,61.26485 -0.6398,69.20429 l -0.966421,14.43534 z"
       id="path14090" />
    <path
       style="fill:#ffb013;fill-opacity:1;stroke:#fff300;stroke-width:1.26383;stroke-opacity:0.0120482"
       d="M 105.00357,425.31904 V 356.6744 l 38.70694,22.88537 c 56.02284,33.12331 58.42692,34.57274 59.09641,35.62951 0.54129,0.8544 -6.79101,7.02434 -44.70125,37.6149 -24.16873,19.50224 -51.73644,41.15949 -52.39229,41.15949 -0.39039,0 -0.70981,-30.89008 -0.70981,-68.64463 z"
       id="path14129" />
    <path
       style="fill:#ffd713;fill-opacity:1;stroke:#fff300;stroke-width:1.26383;stroke-opacity:0.0120482"
       d="M 74.933721,473.77447 C 62.265994,462.69773 47.945738,450.07085 43.110926,445.71479 l -8.790575,-7.92013 3.596259,-4.68315 c 1.97794,-2.57572 16.586096,-20.08243 32.462571,-38.90378 l 28.866338,-34.22063 0.332011,61.47299 c 0.182601,33.81015 -0.10537,63.94371 -0.639776,66.96347 l -0.9718,5.49047 z"
       id="path14168" />
    <path
       style="fill:#ffc913;fill-opacity:1;stroke:#fff300;stroke-width:1.26383;stroke-opacity:0.0120482"
       d="m 328.02263,208.72901 c 16.97034,-29.17882 31.17009,-53.03517 31.55499,-53.01409 0.74228,0.0406 27.10912,56.40138 26.59365,56.84556 -0.90426,0.77921 -87.91726,49.22093 -88.41263,49.22093 -0.32515,0 13.29364,-23.87359 30.26399,-53.0524 z"
       id="path15391" />
    <path
       style="fill:#fff013;fill-opacity:1;stroke:#fff300;stroke-width:1.26383;stroke-opacity:0.0120482"
       d="m 296.17154,253.66751 c 0.99041,-5.0494 25.07907,-148.08138 25.07907,-148.91273 0,-0.36096 8.12159,9.89405 18.04802,22.78892 16.58358,21.54287 17.93315,23.69113 16.6325,26.476 -1.92319,4.11774 -56.37341,97.76147 -58.66722,100.89611 -1.71575,2.34467 -1.78221,2.26874 -1.09237,-1.2483 z"
       id="path16429" />
    <path
       style="fill:#47a300;fill-opacity:1;stroke:#fff300;stroke-width:1.26383;stroke-opacity:0.0120482"
       d="m 357.07852,57.774767 c 0,-0.294291 4.66454,-10.545876 10.36566,-22.781319 5.70112,-12.235429 10.8589,-23.483928 11.46175,-24.9966608 l 1.09609,-2.7504237 5.81829,3.1724215 c 3.62365,1.975794 5.47741,3.719525 4.91456,4.622863 -2.11957,3.401701 -32.63889,43.268211 -33.12347,43.268211 -0.29309,0 -0.53288,-0.240788 -0.53288,-0.535092 z"
       id="path17430" />
    <path
       style="fill:#56c600;fill-opacity:1;stroke:#fff300;stroke-width:1.26383;stroke-opacity:0.0120482"
       d="m 338.83992,70.984956 c -2.99263,-1.286379 -4.55919,-2.693809 -4.15596,-3.733827 1.15952,-2.990506 32.9294,-44.018538 33.58804,-43.375997 1.04846,1.022835 -21.80775,49.424745 -23.27762,49.294331 -0.74323,-0.06594 -3.51274,-1.04897 -6.15446,-2.184507 z"
       id="path18875" />
    <path
       style="fill:#429800;fill-opacity:1;stroke:#fff300;stroke-width:1.26383;stroke-opacity:0.0120482"
       d="m 325.08932,92.632047 c 0,-0.482341 1.49078,-5.541599 3.31285,-11.242764 l 3.31286,-10.365772 6.31583,2.560591 c 6.15746,2.496374 6.25888,2.62219 4.04466,5.017683 -3.71132,4.015153 -16.9862,14.97994 -16.9862,14.030262 z"
       id="path19321" />
    <path
       style="fill:#4fb500;fill-opacity:1;stroke:#fff300;stroke-width:1.26383;stroke-opacity:0.0120482"
       d="m 343.64304,111.70647 c -9.85267,-5.43135 -18.33739,-10.27839 -18.85492,-10.7712 -0.51755,-0.49279 4.09791,-5.788936 10.25655,-11.769218 l 11.19755,-10.873237 8.14614,21.259145 c 4.48036,11.69253 7.9262,21.43252 7.65737,21.64444 -0.26879,0.2119 -8.55,-4.05857 -18.40269,-9.48993 z"
       id="path19989" />
    <path
       style="fill:#61d409;fill-opacity:1;stroke:#fff300;stroke-width:1.26383;stroke-opacity:0.0120482"
       d="m 362.52553,112.40007 c -9.08466,-23.288313 -13.49121,-35.417312 -13.00561,-35.797913 1.1011,-0.862998 60.68435,-19.263723 61.10884,-18.871846 0.3872,0.357439 -40.78981,60.590179 -43.34762,63.407789 -0.51814,0.57081 -2.65817,-3.36131 -4.75561,-8.73803 z"
       id="path20213" />
    <path
       style="fill:#77ee1c;fill-opacity:1;stroke:#fff300;stroke-width:1.26383;stroke-opacity:0.0120482"
       d="m 397.7048,130.77978 c -15.30681,-3.11899 -27.83059,-6.13271 -27.83059,-6.69717 0,-1.34293 43.80077,-64.524458 44.73175,-64.524458 0.55933,0 11.58723,76.589858 11.06266,76.831208 -0.0732,0.0337 -12.65696,-2.4906 -27.96382,-5.60958 z"
       id="path20622" />
    <path
       style="fill:#63e300;fill-opacity:1;stroke:#fff300;stroke-width:1.26383;stroke-opacity:0.0120482"
       d="m 428.57651,133.10334 c -0.54544,-1.79746 -10.85951,-76.745178 -10.60753,-77.080102 0.3457,-0.459471 59.7964,8.515873 60.42168,9.121926 0.29791,0.288766 -46.81273,65.391166 -49.17723,67.958176 -0.2635,0.28607 -0.55011,0.28607 -0.63692,0 z"
       id="path20846" />
    <path
       style="fill:#83ff24;fill-opacity:1;stroke:#fff300;stroke-width:1.26383;stroke-opacity:0.0120482"
       d="m 433.40633,132.8953 c 0.54137,-0.85821 11.19431,-15.50152 23.67318,-32.54069 26.48549,-36.164374 24.46273,-36.076974 23.8538,-1.030671 l -0.37645,21.665531 -22.39245,6.70422 c -23.91992,7.16149 -26.31138,7.66393 -24.75808,5.20161 z"
       id="path21292" />
    <path
       style="fill:#9bff4d;fill-opacity:1;stroke:#fff300;stroke-width:1.26383;stroke-opacity:0.0120482"
       d="M 483.75578,91.246028 V 66.760765 l 2.87902,1.787045 c 1.58348,0.982888 6.62177,3.949964 11.19623,6.593496 4.57446,2.643545 8.53311,4.970093 8.797,5.170085 0.54049,0.409629 -21.56018,35.419879 -22.35924,35.419879 -0.28217,0 -0.51301,-11.01836 -0.51301,-24.485242 z"
       id="path21627" />
  </g>
</svg>
